# xmcd
#
# Track frame offsets: 
#        150
#        12013
#        31231
#        60809
#        85004
#        102133
#        126116
#        142057
#        167573
#        194719
#        214545
#        230903
#
# Disc length: 3325 seconds
#
# Revision: 5
# Processed by: cddbd v1.5.2PL0 Copyright (c) Steve Scherf et al.
# Submitted via: ExactAudioCopy v0.99pb5
#
DISCID=990cfb0c
DTITLE=Rory Gallagher - Big Guns - The Very Best Of Rory Gallagher [CD
DTITLE=2)
DYEAR=2005
DGENRE=Blues-Rock
TTITLE0=The Loop
TTITLE1=Born On The Wrong Side Of Time
TTITLE2=A Million Miles Away
TTITLE3=Calling Card
TTITLE4=Out On The Western Plain
TTITLE5=Lonesome Highway
TTITLE6=Just The Smile
TTITLE7=I'm Not Awake Yet
TTITLE8=Daughter Of The Everglades
TTITLE9=I'll Admit You're Gone
TTITLE10=The King Of Zydeco
TTITLE11=They Don't Make Them Like You Anymore
EXTD=
EXTT0=
EXTT1=
EXTT2=
EXTT3=
EXTT4=
EXTT5=
EXTT6=
EXTT7=
EXTT8=
EXTT9=
EXTT10=
EXTT11=
PLAYORDER=
